<svg xmlns="http://www.w3.org/2000/svg" viewBox="0 0 100 100">
  <defs>
    <linearGradient id="bb" x1="0" y1="0" x2="0.2" y2="1">
      <stop offset="0%" stop-color="#B0BAD0"/>
      <stop offset="30%" stop-color="#8898B8"/>
      <stop offset="60%" stop-color="#6878A0"/>
      <stop offset="100%" stop-color="#506088"/>
    </linearGradient>
    <linearGradient id="bbelly" x1="0" y1="0" x2="0" y2="1">
      <stop offset="0%" stop-color="#D8D8E8"/>
      <stop offset="100%" stop-color="#F0EEF0"/>
    </linearGradient>
    <radialGradient id="be" cx="0.4" cy="0.35" r="0.5">
      <stop offset="0%" stop-color="#333"/>
      <stop offset="100%" stop-color="#000"/>
    </radialGradient>
    <linearGradient id="bgold" x1="0" y1="0" x2="1" y2="0">
      <stop offset="0%" stop-color="#D4A050" stop-opacity="0"/>
      <stop offset="40%" stop-color="#D4A050" stop-opacity="0.4"/>
      <stop offset="60%" stop-color="#E8B868" stop-opacity="0.5"/>
      <stop offset="100%" stop-color="#D4A050" stop-opacity="0"/>
    </linearGradient>
  </defs>
  <!-- Tail fin -->
  <path d="M6 40 Q-2 30 2 22 Q4 22 6 28 L10 36Z" fill="#8898B8" stroke="#506088" stroke-width="0.6"/>
  <path d="M6 60 Q-2 70 2 78 Q4 78 6 72 L10 64Z" fill="#8898B8" stroke="#506088" stroke-width="0.6"/>
  <path d="M8 50 Q2 48 0 44 L4 42 L8 46Z" fill="#96A4C0" stroke="#506088" stroke-width="0.4"/>
  <path d="M8 50 Q2 52 0 56 L4 58 L8 54Z" fill="#96A4C0" stroke="#506088" stroke-width="0.4"/>
  <!-- Tail fin rays -->
  <path d="M4 26 L8 34" stroke="#7888A8" stroke-width="0.4" opacity="0.4"/>
  <path d="M2 32 L8 38" stroke="#7888A8" stroke-width="0.4" opacity="0.4"/>
  <path d="M2 68 L8 62" stroke="#7888A8" stroke-width="0.4" opacity="0.4"/>
  <path d="M4 74 L8 66" stroke="#7888A8" stroke-width="0.4" opacity="0.4"/>
  <!-- Body -->
  <path d="M10 50 Q10 28 30 18 Q48 10 68 18 Q84 26 88 40 Q92 50 88 60 Q84 74 68 82 Q48 90 30 82 Q10 72 10 50Z" fill="url(#bb)"/>
  <!-- Belly -->
  <path d="M14 58 Q14 68 30 78 Q46 86 64 80 Q80 74 86 62 Q82 70 66 78 Q48 84 32 78 Q18 70 14 58Z" fill="url(#bbelly)" opacity="0.5"/>
  <!-- Gold/pink lateral band -->
  <path d="M12 52 Q30 48 50 46 Q70 44 88 50" stroke="url(#bgold)" stroke-width="3" fill="none" stroke-linecap="round"/>
  <!-- Scale pattern -->
  <g opacity="0.2" stroke="#506088" stroke-width="0.4" fill="none">
    <path d="M20 36 Q23 34 26 36"/>
    <path d="M26 36 Q29 34 32 36"/>
    <path d="M32 36 Q35 34 38 36"/>
    <path d="M38 36 Q41 34 44 36"/>
    <path d="M44 36 Q47 34 50 36"/>
    <path d="M18 42 Q21 40 24 42"/>
    <path d="M24 42 Q27 40 30 42"/>
    <path d="M30 42 Q33 40 36 42"/>
    <path d="M36 42 Q39 40 42 42"/>
    <path d="M42 42 Q45 40 48 42"/>
    <path d="M48 42 Q51 40 54 42"/>
    <path d="M22 48 Q25 46 28 48"/>
    <path d="M28 48 Q31 46 34 48"/>
    <path d="M34 48 Q37 46 40 48"/>
    <path d="M40 48 Q43 46 46 48"/>
    <path d="M46 48 Q49 46 52 48"/>
    <path d="M52 48 Q55 46 58 48"/>
    <path d="M20 54 Q23 52 26 54"/>
    <path d="M26 54 Q29 52 32 54"/>
    <path d="M32 54 Q35 52 38 54"/>
    <path d="M38 54 Q41 52 44 54"/>
    <path d="M44 54 Q47 52 50 54"/>
    <path d="M50 54 Q53 52 56 54"/>
    <path d="M24 60 Q27 58 30 60"/>
    <path d="M30 60 Q33 58 36 60"/>
    <path d="M36 60 Q39 58 42 60"/>
    <path d="M42 60 Q45 58 48 60"/>
    <path d="M48 60 Q51 58 54 60"/>
  </g>
  <!-- Dorsal fin -->
  <path d="M26 18 Q30 4 42 8 Q44 12 42 18" fill="#7888A8" stroke="#506088" stroke-width="0.6"/>
  <path d="M42 18 Q46 2 58 8 Q60 14 56 22" fill="#7888A8" stroke="#506088" stroke-width="0.6"/>
  <path d="M56 22 Q60 10 68 16 Q70 22 66 28" fill="#6878A0" stroke="#506088" stroke-width="0.5"/>
  <!-- Dorsal fin rays -->
  <path d="M32 14 L38 10" stroke="#96A4C0" stroke-width="0.4" opacity="0.4"/>
  <path d="M48 12 L52 6" stroke="#96A4C0" stroke-width="0.4" opacity="0.4"/>
  <path d="M60 18 L64 14" stroke="#96A4C0" stroke-width="0.4" opacity="0.4"/>
  <!-- Pectoral fin -->
  <path d="M56 58 Q50 68 46 74 Q48 72 54 64 Q58 60 60 56" fill="#7888A8" stroke="#506088" stroke-width="0.5" opacity="0.7"/>
  <!-- Anal fin -->
  <path d="M22 78 Q28 86 38 84 Q34 82 26 76Z" fill="#7888A8" stroke="#506088" stroke-width="0.5"/>
  <!-- Gill cover line -->
  <path d="M70 30 Q72 42 72 52 Q72 62 70 72" stroke="#506088" stroke-width="1.2" fill="none" opacity="0.3" stroke-linecap="round"/>
  <!-- Eye -->
  <circle cx="80" cy="38" r="5.5" fill="#F0E8D0" stroke="#506088" stroke-width="0.8"/>
  <circle cx="80" cy="38" r="3.2" fill="url(#be)"/>
  <circle cx="81.5" cy="36.5" r="1.1" fill="white" opacity="0.85"/>
  <circle cx="79" cy="39.5" r="0.4" fill="white" opacity="0.3"/>
  <!-- Gold eyebrow mark -->
  <path d="M74 32 Q78 30 84 32" stroke="#D4A050" stroke-width="1.2" fill="none" stroke-linecap="round" opacity="0.5"/>
  <!-- Mouth -->
  <path d="M88 50 Q92 52 94 54 Q92 56 88 56 Q90 54 90 52Z" fill="#6878A0" stroke="#506088" stroke-width="0.6"/>
  <path d="M86 48 Q90 50 94 54" stroke="#7888A8" stroke-width="0.8" fill="none" stroke-linecap="round" opacity="0.5"/>
  <path d="M86 58 Q90 56 94 54" stroke="#7888A8" stroke-width="0.7" fill="none" stroke-linecap="round" opacity="0.4"/>
  <!-- Highlight -->
  <path d="M30 24 Q50 16 70 22" stroke="white" stroke-width="1" fill="none" opacity="0.1" stroke-linecap="round"/>
</svg>
