<svg xmlns="http://www.w3.org/2000/svg" viewBox="0 0 100 100">
  <defs>
    <linearGradient id="sb" x1="0" y1="0" x2="1" y2="1">
      <stop offset="0%" stop-color="#F7A98B"/>
      <stop offset="40%" stop-color="#E8734A"/>
      <stop offset="100%" stop-color="#C04E2B"/>
    </linearGradient>
    <linearGradient id="st" x1="0" y1="0" x2="0" y2="1">
      <stop offset="0%" stop-color="#F5C0A0"/>
      <stop offset="100%" stop-color="#D65E38"/>
    </linearGradient>
    <radialGradient id="se" cx="0.4" cy="0.35" r="0.5">
      <stop offset="0%" stop-color="#222"/>
      <stop offset="70%" stop-color="#111"/>
      <stop offset="100%" stop-color="#000"/>
    </radialGradient>
  </defs>
  <!-- Tail fan -->
  <path d="M14 68 Q6 74 8 80 Q10 84 16 82 L20 76Z" fill="#E88060" stroke="#C04E2B" stroke-width="0.6"/>
  <path d="M14 68 Q4 68 4 74 Q5 79 12 78 L16 74Z" fill="#F09878" stroke="#C04E2B" stroke-width="0.6"/>
  <path d="M16 70 Q8 62 6 56 Q8 58 14 64Z" fill="#E88060" stroke="#C04E2B" stroke-width="0.5"/>
  <!-- Body segments -->
  <path d="M16 70 Q22 78 30 76 Q38 74 42 68 Q46 62 50 58 Q54 54 60 52 Q66 50 72 50" fill="none" stroke="url(#sb)" stroke-width="14" stroke-linecap="round"/>
  <path d="M16 70 Q22 78 30 76 Q38 74 42 68 Q46 62 50 58 Q54 54 60 52 Q66 50 72 50" fill="none" stroke="url(#sb)" stroke-width="12" stroke-linecap="round" opacity="0.8"/>
  <!-- Segment lines -->
  <path d="M22 74 Q24 70 22 66" stroke="#C04E2B" stroke-width="0.7" fill="none" opacity="0.6"/>
  <path d="M28 76 Q30 72 28 68" stroke="#C04E2B" stroke-width="0.7" fill="none" opacity="0.6"/>
  <path d="M34 74 Q36 70 35 66" stroke="#C04E2B" stroke-width="0.7" fill="none" opacity="0.6"/>
  <path d="M40 70 Q42 66 41 62" stroke="#C04E2B" stroke-width="0.7" fill="none" opacity="0.6"/>
  <path d="M46 64 Q48 60 47 56" stroke="#C04E2B" stroke-width="0.7" fill="none" opacity="0.6"/>
  <path d="M52 58 Q54 54 53 50" stroke="#C04E2B" stroke-width="0.7" fill="none" opacity="0.5"/>
  <path d="M58 54 Q60 50 59 46" stroke="#C04E2B" stroke-width="0.7" fill="none" opacity="0.5"/>
  <!-- Belly highlight -->
  <path d="M20 74 Q26 80 34 78 Q40 76 44 70 Q48 64 52 60 Q56 56 62 54 Q66 52 70 52" fill="none" stroke="#F5C0A0" stroke-width="3" stroke-linecap="round" opacity="0.4"/>
  <!-- Head/carapace -->
  <ellipse cx="74" cy="48" rx="14" ry="10" fill="url(#sb)" stroke="#B8442A" stroke-width="0.8"/>
  <ellipse cx="74" cy="48" rx="12" ry="8" fill="none" stroke="#F5C0A0" stroke-width="0.5" opacity="0.3"/>
  <!-- Rostrum (pointy head) -->
  <path d="M86 44 L96 38 L92 42 L88 44Z" fill="#D65E38" stroke="#B8442A" stroke-width="0.5"/>
  <!-- Eye -->
  <circle cx="84" cy="42" r="3" fill="url(#se)"/>
  <circle cx="85" cy="41" r="1" fill="white" opacity="0.8"/>
  <circle cx="83" cy="43" r="0.5" fill="#333" opacity="0.3"/>
  <!-- Antennae -->
  <path d="M88 42 Q94 30 98 18" stroke="#D65E38" stroke-width="1" fill="none" stroke-linecap="round"/>
  <path d="M86 40 Q90 28 88 14" stroke="#D65E38" stroke-width="0.8" fill="none" stroke-linecap="round"/>
  <path d="M88 44 Q96 36 98 28" stroke="#C04E2B" stroke-width="0.6" fill="none" stroke-linecap="round" opacity="0.6"/>
  <!-- Walking legs -->
  <path d="M66 54 L60 66 L56 70" stroke="#C04E2B" stroke-width="1" fill="none" stroke-linecap="round"/>
  <path d="M62 56 L58 66 L54 72" stroke="#C04E2B" stroke-width="0.9" fill="none" stroke-linecap="round"/>
  <path d="M58 56 L56 64 L52 70" stroke="#C04E2B" stroke-width="0.8" fill="none" stroke-linecap="round"/>
  <path d="M70 52 L66 62 L62 68" stroke="#C04E2B" stroke-width="1" fill="none" stroke-linecap="round"/>
  <!-- Swimmerets (small under-tail legs) -->
  <path d="M24 76 L22 82" stroke="#D68060" stroke-width="0.6" fill="none" opacity="0.5"/>
  <path d="M30 78 L28 84" stroke="#D68060" stroke-width="0.6" fill="none" opacity="0.5"/>
  <path d="M36 76 L34 82" stroke="#D68060" stroke-width="0.6" fill="none" opacity="0.5"/>
  <path d="M42 72 L40 78" stroke="#D68060" stroke-width="0.6" fill="none" opacity="0.5"/>
  <!-- Dorsal highlight -->
  <path d="M24 68 Q32 66 40 62 Q48 56 56 50 Q62 46 68 44" stroke="white" stroke-width="1.5" fill="none" opacity="0.15" stroke-linecap="round"/>
</svg>
